<?xml version="1.0" encoding="UTF-8" standalone="no"?>
<!-- Generator: Adobe Illustrator 19.0.0, SVG Export Plug-In . SVG Version: 6.00 Build 0)  -->

<svg
   xmlns:dc="http://purl.org/dc/elements/1.1/"
   xmlns:cc="http://creativecommons.org/ns#"
   xmlns:rdf="http://www.w3.org/1999/02/22-rdf-syntax-ns#"
   xmlns:svg="http://www.w3.org/2000/svg"
   xmlns="http://www.w3.org/2000/svg"
   xmlns:sodipodi="http://sodipodi.sourceforge.net/DTD/sodipodi-0.dtd"
   xmlns:inkscape="http://www.inkscape.org/namespaces/inkscape"
   version="1.1"
   id="Capa_1"
   x="0px"
   y="0px"
   viewBox="0 0 480.02 480.02"
   style="enable-background:new 0 0 480.02 480.02;"
   xml:space="preserve"
   inkscape:version="0.91 r13725"
   sodipodi:docname="logo.svg"><metadata
     id="metadata127"><rdf:RDF><cc:Work
         rdf:about=""><dc:format>image/svg+xml</dc:format><dc:type
           rdf:resource="http://purl.org/dc/dcmitype/StillImage" /></cc:Work></rdf:RDF></metadata><defs
     id="defs125" /><sodipodi:namedview
     pagecolor="#ffffff"
     bordercolor="#666666"
     borderopacity="1"
     objecttolerance="10"
     gridtolerance="10"
     guidetolerance="10"
     inkscape:pageopacity="0"
     inkscape:pageshadow="2"
     inkscape:window-width="1978"
     inkscape:window-height="925"
     id="namedview123"
     showgrid="false"
     inkscape:zoom="1.3905854"
     inkscape:cx="120.32134"
     inkscape:cy="264.22515"
     inkscape:window-x="364"
     inkscape:window-y="345"
     inkscape:window-maximized="0"
     inkscape:current-layer="flowRoot4256" /><g
     id="g3"><path
       inkscape:connector-curvature="0"
       id="path7"
       d="m 390.332,123.098 -54.312,-69.832 0,-29.256 c 0,-13.255 -10.745,-24 -24,-24 l -128,0 c -13.255,0 -24,10.745 -24,24 l 0,29.256 -54.312,69.832 c -1.093,1.404 -1.687,3.133 -1.688,4.912 l 0,344 c 0,4.418 3.582,8 8,8 l 272,0 c 4.418,0 8,-3.582 8,-8 l 0,-344 c 0,-1.779 -0.594,-3.508 -1.688,-4.912 z M 176.02,24.01 c 0,-4.418 3.582,-8 8,-8 l 128,0 c 4.418,0 8,3.582 8,8 l 0,24 -144,0 z m 88,104 0,335.48882 -144,1.06899 0,-333.81381 51.912,-66.744 139.728,0 -45.952,59.088 c -1.093,1.404 -1.687,3.133 -1.688,4.912 z m 112,336 -96,0 0,-333.256 48,-61.712 48,61.712 z"
       sodipodi:nodetypes="ccsssscccssssscssssccscccccccccccccc" /><g
       transform="translate(-41.709053,29.483989)"
       style="font-style:normal;font-variant:normal;font-weight:normal;font-stretch:normal;font-size:112.5px;line-height:125%;font-family:'JetBrains Mono';-inkscape-font-specification:'JetBrains Mono, Normal';text-align:start;letter-spacing:0px;word-spacing:0px;writing-mode:lr-tb;text-anchor:start;fill:#000000;fill-opacity:1;stroke:none;stroke-width:1px;stroke-linecap:butt;stroke-linejoin:miter;stroke-opacity:1"
       id="flowRoot4256"><path
         d="m 253.0168,168.54211 12.72246,0 -47.54183,125.8854 -12.72246,0 47.54183,-125.8854 z"
         style="font-style:normal;font-variant:normal;font-weight:normal;font-stretch:normal;font-size:112.5px;line-height:125%;font-family:'JetBrains Mono';-inkscape-font-specification:'JetBrains Mono, Normal';text-align:start;writing-mode:lr-tb;text-anchor:start"
         id="path4267"
         inkscape:connector-curvature="0" /></g></g><g
     id="g93" /><g
     id="g95" /><g
     id="g97" /><g
     id="g99" /><g
     id="g101" /><g
     id="g103" /><g
     id="g105" /><g
     id="g107" /><g
     id="g109" /><g
     id="g111" /><g
     id="g113" /><g
     id="g115" /><g
     id="g117" /><g
     id="g119" /><g
     id="g121" /></svg>